<svg id="Layer_1" data-name="Layer 1" xmlns="http://www.w3.org/2000/svg" viewBox="0 0 337.24 249.05"><defs><style>.cls-1{fill:#6ad4eb;}</style></defs><title>visual+wordmark</title><polyline points="144.97 0.04 166.09 21.16 137.99 49.27 174.93 86.21 166.19 94.94 166.19 101.24 181.31 86.13 144.4 49.23 172.41 21.21 151.24 0.04"/><polyline class="cls-1" points="154.14 0 175.26 21.12 147.16 49.23 184.1 86.17 166.51 103.76 166.51 107.11 187.53 86.09 150.62 49.19 178.64 21.17 157.46 0"/><polyline points="127.4 124 124.72 94.25 85.14 97.81 80.45 45.78 68.15 46.89 63.31 42.85 84.6 40.93 89.28 92.92 128.74 89.36 131.43 119.18"/><polyline class="cls-1" points="133.31 116.98 130.63 87.23 91.05 90.8 86.36 38.76 61.58 40.99 59.01 38.85 88.61 36.18 93.3 88.16 132.76 84.61 135.44 114.43"/><polyline points="238.56 145.1 253.94 119.49 288.01 139.96 314.92 95.18 325.51 101.54 331.62 100.02 313.31 89.01 286.42 133.75 252.46 113.34 237.04 139.01"/><polyline class="cls-1" points="236.3 136.2 251.69 110.6 285.75 131.07 312.66 86.29 333.99 99.1 337.24 98.29 311.76 82.98 284.88 127.72 250.92 107.31 235.5 132.98"/><polyline points="98.68 146.36 83.29 120.75 49.23 141.22 22.32 96.44 11.73 102.81 5.62 101.28 23.93 90.27 50.82 135.01 84.78 114.6 100.2 140.27"/><polyline class="cls-1" points="100.94 137.47 85.55 111.86 51.49 132.33 24.58 87.55 3.25 100.36 0 99.56 25.48 84.25 52.36 128.98 86.32 108.58 101.74 134.24"/><path d="M127.14,162.2c7.63,0,14.35,4.41,18.33,11.13.35.59,1.15.18,1-.51-2.16-9.07-9.41-15.73-18-15.73-6.47,0-12.16,3.76-15.51,9.46-.34.58.31,1.26.8.83A20.31,20.31,0,0,1,127.14,162.2Z"/><path d="M212.8,162.2c-7.63,0-14.35,4.41-18.33,11.13-.35.59-1.15.18-1-.51,2.16-9.07,9.41-15.73,18-15.73,6.47,0,12.16,3.76,15.51,9.46.34.58-.31,1.26-.8.83A20.31,20.31,0,0,0,212.8,162.2Z"/><polyline points="210.94 122.87 213.62 93.11 253.21 96.68 257.89 44.65 270.2 45.75 275.04 41.72 253.75 39.8 249.07 91.78 209.61 88.23 206.92 118.05"/><polyline class="cls-1" points="205.03 115.85 207.71 86.1 247.3 89.66 251.99 37.63 276.77 39.86 279.34 37.71 249.73 35.05 245.05 87.03 205.59 83.47 202.91 113.3"/><polygon points="74.79 248.9 74.79 240.76 58.81 224.79 74.79 208.82 74.79 200.68 50.67 224.79 74.79 248.9"/><path d="M116.19,243.78h14.39V249H105.1l15.69-19H108.43v-5.22h23.42Z"/><path d="M135.49,217a3.65,3.65,0,0,1,3.63-3.6,3.52,3.52,0,0,1,2.59,1.07,3.44,3.44,0,0,1,1.07,2.56,3.52,3.52,0,0,1-1.07,2.59,3.44,3.44,0,0,1-2.56,1.07,3.65,3.65,0,0,1-3.65-3.68Zm6.44,7.81V249h-5.59V230.49Z"/><polygon points="200.71 248.94 206.31 244.53 206.28 206.27 230.95 206.27 235.23 200.68 200.71 200.68 200.71 248.94"/><path d="M212.86,236.07a12,12,0,0,1,3.75-8.92,13.24,13.24,0,0,1,18.35,0,13,13,0,0,1,0,18.22,12.83,12.83,0,0,1-9.27,3.65,12.31,12.31,0,0,1-9.12-3.73A12.54,12.54,0,0,1,212.86,236.07Zm5.72.1a8.16,8.16,0,0,0,1.94,5.74,7.53,7.53,0,0,0,10.49,0,9.09,9.09,0,0,0,0-11.29,7.44,7.44,0,0,0-10.44,0A7.78,7.78,0,0,0,218.58,236.17Z"/><path d="M262,212l5.62-5.66v42H262v-2.54a10.43,10.43,0,0,1-7.48,3.23,10.65,10.65,0,0,1-8.25-3.63,13.49,13.49,0,0,1-3.26-9.25,13,13,0,0,1,3.26-9,10.46,10.46,0,0,1,15.74-.17Zm-13.28,24.15a8.44,8.44,0,0,0,1.86,5.67,6.11,6.11,0,0,0,4.82,2.21,6.42,6.42,0,0,0,5-2.14,9.2,9.2,0,0,0,0-11.24,6.33,6.33,0,0,0-5-2.16,6.18,6.18,0,0,0-4.82,2.19A8.06,8.06,0,0,0,248.68,236.17Z"/><path d="M292,212l5.62-5.66v42H292v-2.54a10.43,10.43,0,0,1-7.48,3.23,10.65,10.65,0,0,1-8.25-3.63,13.49,13.49,0,0,1-3.26-9.25,13,13,0,0,1,3.26-9,10.46,10.46,0,0,1,15.74-.17Zm-13.28,24.15a8.44,8.44,0,0,0,1.86,5.67,6.11,6.11,0,0,0,4.82,2.21,6.42,6.42,0,0,0,5-2.14,9.2,9.2,0,0,0,0-11.24,6.33,6.33,0,0,0-5-2.16,6.18,6.18,0,0,0-4.82,2.19A8.06,8.06,0,0,0,278.69,236.17Z"/><rect x="39.65" y="200.68" width="5.59" height="48.23"/><path d="M185.87,206.27v-5.59h19.9v5.59Z"/><path d="M98.24,239.48l-.19-.1-.07.1Z"/><path d="M96.08,242a7.92,7.92,0,0,1-1.08,1,5.72,5.72,0,0,1-3.46,1,5.91,5.91,0,0,1-4.4-1.74,7.35,7.35,0,0,1-1.94-4.75h17.35l0-1.32q0-6-3.08-9.37A10.87,10.87,0,0,0,91,223.47a11,11,0,0,0-8.5,3.51,13.41,13.41,0,0,0-3.18,9.3,13.05,13.05,0,0,0,3.28,9.3,11.4,11.4,0,0,0,8.7,3.48,14.64,14.64,0,0,0,3.51-.4,10.48,10.48,0,0,0,3-1.26,12.33,12.33,0,0,0,2.61-2.19,18.8,18.8,0,0,0,2.3-3.18Zm-9.71-10.9a5.68,5.68,0,0,1,1.26-1.4,5.5,5.5,0,0,1,1.63-.89,5.81,5.81,0,0,1,1.91-.31q4.47,0,5.64,4.47H85.57A6.53,6.53,0,0,1,86.37,231.12Z"/><path d="M165.74,239.48l-.19-.1-.07.1Z"/><path d="M163.57,242a7.92,7.92,0,0,1-1.08,1,5.72,5.72,0,0,1-3.46,1,5.91,5.91,0,0,1-4.4-1.74,7.35,7.35,0,0,1-1.94-4.75H170l0-1.32q0-6-3.08-9.37a12.13,12.13,0,0,0-17,.1,13.41,13.41,0,0,0-3.18,9.3,13.05,13.05,0,0,0,3.28,9.3,11.4,11.4,0,0,0,8.7,3.48,14.65,14.65,0,0,0,3.51-.4,10.49,10.49,0,0,0,3-1.26,12.32,12.32,0,0,0,2.61-2.19,18.8,18.8,0,0,0,2.3-3.18Zm-9.71-10.9a5.69,5.69,0,0,1,1.26-1.4,5.51,5.51,0,0,1,1.63-.89,5.81,5.81,0,0,1,1.91-.31q4.47,0,5.64,4.47H153.07A6.53,6.53,0,0,1,153.86,231.12Z"/></svg>